<?xml version="1.0" encoding="UTF-8"?><svg x="0" y="0" width="800px" height="455px" viewBox="0 0 800 455" style="font-family:Arial, Helvetica, sans-serif" xmlns="http://www.w3.org/2000/svg" xmlns:xlink="http://www.w3.org/1999/xlink"><!-- Header of plot--><text x="10" y="15" fill="black" style="font-weight:bold">Study</text><text x="250" y="15" fill="black" style="font-weight:bold">Sensitivity (%)</text><text x="500" y="15" fill="black" style="font-weight:bold">Specificity (%)</text><!-- Start of studies--><a xlink:href="http://pubmed.gov/1410342" title="Study size is 42. Prevalence of the outcome is 43%. Click citation to open abstract at PubMed in a new window." target="_blank"><text x="10" y="35" fill="rgba(0,0,255,1)">Remy-Jardin, 1992</text></a><text x="200" y="35" fill="black" style="font-weight:normal">97 (79 - 100)</text><circle cx="397.368421052632" cy="35" r="3" stroke-width="0" style="fill:black;"></circle><line x1="379.079425978837" y1="35" x2="399.724647531967" y2="35" style="stroke:rgba(0,0,0,1);stroke-width:2" ></line><text x="450" y="35" fill="black" style="font-weight:normal">94 (78 - 99)</text><circle cx="644" cy="35" r="3" stroke-width="0" style="fill:black;"></circle><line x1="627.676969109247" y1="35" x2="648.602112808117" y2="35" style="stroke:rgba(0,0,0,1);stroke-width:2" ></line><a xlink:href="http://pubmed.gov/8017318" title="Study size is 10. Prevalence of the outcome is 70%. Click citation to open abstract at PubMed in a new window." target="_blank"><text x="10" y="55" fill="rgba(0,0,255,1)">Blum, 1994</text></a><text x="200" y="55" fill="black" style="font-weight:normal">94 (60 - 99)</text><circle cx="393.75" cy="55" r="3" stroke-width="0" style="fill:black;"></circle><line x1="359.770329765935" y1="55" x2="399.344008306725" y2="55" style="stroke:rgba(0,0,0,1);stroke-width:2" ></line><text x="450" y="55" fill="black" style="font-weight:normal">88 (40 - 99)</text><circle cx="637.5" cy="55" r="3" stroke-width="0" style="fill:black;"></circle><line x1="589.577303448278" y1="55" x2="648.680883817627" y2="55" style="stroke:rgba(0,0,0,1);stroke-width:2" ></line><a xlink:href="http://pubmed.gov/7754875" title="Study size is 20. Prevalence of the outcome is 55%. Click citation to open abstract at PubMed in a new window." target="_blank"><text x="10" y="75" fill="rgba(0,0,255,1)">Goodman, 1995</text></a><text x="200" y="75" fill="black" style="font-weight:normal">62 (35 - 84)</text><circle cx="362.5" cy="75" r="3" stroke-width="0" style="fill:black;"></circle><line x1="335.436901346625" y1="75" x2="383.500748486994" y2="75" style="stroke:rgba(0,0,0,1);stroke-width:2" ></line><text x="450" y="75" fill="black" style="font-weight:normal">85 (54 - 96)</text><circle cx="635" cy="75" r="3" stroke-width="0" style="fill:black;"></circle><line x1="604.115398384334" y1="75" x2="646.457305625263" y2="75" style="stroke:rgba(0,0,0,1);stroke-width:2" ></line><a xlink:href="http://pubmed.gov/8756918" title="Study size is 75. Prevalence of the outcome is 57%. Click citation to open abstract at PubMed in a new window." target="_blank"><text x="10" y="95" fill="rgba(0,0,255,1)">Remy-Jardin, 1996</text></a><text x="200" y="95" fill="black" style="font-weight:normal">90 (77 - 96)</text><circle cx="389.772727272727" cy="95" r="3" stroke-width="0" style="fill:black;"></circle><line x1="377.418325840303" y1="95" x2="395.739978406181" y2="95" style="stroke:rgba(0,0,0,1);stroke-width:2" ></line><text x="450" y="95" fill="black" style="font-weight:normal">98 (87 - 100)</text><circle cx="648.484848484848" cy="95" r="3" stroke-width="0" style="fill:black;"></circle><line x1="637.017052599183" y1="95" x2="649.841614305791" y2="95" style="stroke:rgba(0,0,0,1);stroke-width:2" ></line><a xlink:href="http://pubmed.gov/9769837" title="Study size is 47. Prevalence of the outcome is 32%. Click citation to open abstract at PubMed in a new window." target="_blank"><text x="10" y="115" fill="rgba(0,0,255,1)">Drucker, 1998</text></a><text x="200" y="115" fill="black" style="font-weight:normal">53 (31 - 74)</text><circle cx="353.125" cy="115" r="3" stroke-width="0" style="fill:black;"></circle><line x1="330.554217295898" y1="115" x2="374.485734700762" y2="115" style="stroke:rgba(0,0,0,1);stroke-width:2" ></line><text x="450" y="115" fill="black" style="font-weight:normal">95 (82 - 99)</text><circle cx="645.454545454545" cy="115" r="3" stroke-width="0" style="fill:black;"></circle><line x1="632.486731478938" y1="115" x2="648.943268744476" y2="115" style="stroke:rgba(0,0,0,1);stroke-width:2" ></line><a xlink:href="http://pubmed.gov/9646814" title="Study size is 24. Prevalence of the outcome is 25%. Click citation to open abstract at PubMed in a new window." target="_blank"><text x="10" y="135" fill="rgba(0,0,255,1)">Garg, 1998</text></a><text x="200" y="135" fill="black" style="font-weight:normal">64 (30 - 88)</text><circle cx="364.285714285714" cy="135" r="3" stroke-width="0" style="fill:black;"></circle><line x1="330.256002981393" y1="135" x2="388.191698873845" y2="135" style="stroke:rgba(0,0,0,1);stroke-width:2" ></line><text x="450" y="135" fill="black" style="font-weight:normal">97 (79 - 100)</text><circle cx="647.368421052632" cy="135" r="3" stroke-width="0" style="fill:black;"></circle><line x1="629.079425978837" y1="135" x2="649.724647531967" y2="135" style="stroke:rgba(0,0,0,1);stroke-width:2" ></line><a xlink:href="http://pubmed.gov/11058644" title="Study size is 151. Prevalence of the outcome is 39%. Click citation to open abstract at PubMed in a new window." target="_blank"><text x="10" y="155" fill="rgba(0,0,255,1)">Qanadli, 2000</text></a><text x="200" y="155" fill="black" style="font-weight:normal">94 (85 - 98)</text><circle cx="394.166666666667" cy="155" r="3" stroke-width="0" style="fill:black;"></circle><line x1="385.175395294163" y1="155" x2="397.842757766619" y2="155" style="stroke:rgba(0,0,0,1);stroke-width:2" ></line><text x="450" y="155" fill="black" style="font-weight:normal">96 (90 - 99)</text><circle cx="646.236559139785" cy="155" r="3" stroke-width="0" style="fill:black;"></circle><line x1="640.19168870836" y1="155" x2="648.61325191034" y2="155" style="stroke:rgba(0,0,0,1);stroke-width:2" ></line><a xlink:href="http://pubmed.gov/12626206" title="Study size is 90. Prevalence of the outcome is 37%. Click citation to open abstract at PubMed in a new window." target="_blank"><text x="10" y="175" fill="rgba(0,0,255,1)">Nilsson, 2002</text></a><text x="200" y="175" fill="black" style="font-weight:normal">90 (75 - 96)</text><circle cx="389.705882352941" cy="175" r="3" stroke-width="0" style="fill:black;"></circle><line x1="375.187562902549" y1="175" x2="396.162751914687" y2="175" style="stroke:rgba(0,0,0,1);stroke-width:2" ></line><text x="450" y="175" fill="black" style="font-weight:normal">96 (87 - 99)</text><circle cx="645.689655172414" cy="175" r="3" stroke-width="0" style="fill:black;"></circle><line x1="637.048417439253" y1="175" x2="648.654606083641" y2="175" style="stroke:rgba(0,0,0,1);stroke-width:2" ></line><a xlink:href="http://pubmed.gov/12664123" title="Study size is 61. Prevalence of the outcome is 38%. Click citation to open abstract at PubMed in a new window." target="_blank"><text x="10" y="195" fill="rgba(0,0,255,1)">Ruiz, 2003</text></a><text x="200" y="195" fill="black" style="font-weight:normal">90 (72 - 97)</text><circle cx="389.583333333333" cy="195" r="3" stroke-width="0" style="fill:black;"></circle><line x1="371.528822689569" y1="195" x2="396.714727773661" y2="195" style="stroke:rgba(0,0,0,1);stroke-width:2" ></line><text x="450" y="195" fill="black" style="font-weight:normal">81 (66 - 90)</text><circle cx="630.769230769231" cy="195" r="3" stroke-width="0" style="fill:black;"></circle><line x1="615.890539036429" y1="195" x2="640.129962273874" y2="195" style="stroke:rgba(0,0,0,1);stroke-width:2" ></line><a xlink:href="http://pubmed.gov/15634261" title="Study size is 245. Prevalence of the outcome is 56%. Click citation to open abstract at PubMed in a new window." target="_blank"><text x="10" y="215" fill="rgba(0,0,255,1)">Van Strijen, 2005</text></a><text x="200" y="215" fill="black" style="font-weight:normal">65 (56 - 72)</text><circle cx="364.598540145985" cy="215" r="3" stroke-width="0" style="fill:black;"></circle><line x1="356.292557977635" y1="215" x2="372.108170284435" y2="215" style="stroke:rgba(0,0,0,1);stroke-width:2" ></line><text x="450" y="215" fill="black" style="font-weight:normal">84 (76 - 90)</text><circle cx="634.090909090909" cy="215" r="3" stroke-width="0" style="fill:black;"></circle><line x1="626.123928064512" y1="215" x2="639.757167256067" y2="215" style="stroke:rgba(0,0,0,1);stroke-width:2" ></line><a xlink:href="http://pubmed.gov/16738268" title="Study size is 773. Prevalence of the outcome is 23%. Click citation to open abstract at PubMed in a new window." target="_blank"><text x="10" y="235" fill="rgba(0,0,255,1)">PIOPED II, 2006</text></a><text x="200" y="235" fill="black" style="font-weight:normal">83 (77 - 87)</text><circle cx="382.692307692308" cy="235" r="3" stroke-width="0" style="fill:black;"></circle><line x1="376.535594780441" y1="235" x2="387.497479838724" y2="235" style="stroke:rgba(0,0,0,1);stroke-width:2" ></line><text x="450" y="235" fill="black" style="font-weight:normal">96 (94 - 97)</text><circle cx="645.699831365936" cy="235" r="3" stroke-width="0" style="fill:black;"></circle><line x1="643.751841638482" y1="235" x2="647.059544197707" y2="235" style="stroke:rgba(0,0,0,1);stroke-width:2" ></line><!-- Bottom of plot--><!-- Axes --><g style="stroke:rgba(0,0,0,0.2);stroke-width:2"><line x1="300" y1="245" x2="400" y2="245" ></line><line x1="550" y1="245" x2="650" y2="245" ></line></g><!-- Ticks --><g stroke="rgba(0,0,0,0.2)" stroke-width="1" fill="rgba(0,0,0,0.2)"><g transform="translate(400, 245) rotate(180)"><path d="M 0,0 L 0,5 M 50,0 L 50,5 M 100,0 L 100,5" ></path></g><g transform="translate(650, 245) rotate(180)"><path d="M 0,0 L 0,5 M 50,0 L 50,5 M 100,0 L 100,5" ></path></g></g><!-- Vertical summary lines --><g style="stroke:rgba(0,0,0,0.2);stroke-width:2" ><line x1="380.451127637044" y1="25" x2="380.451127637044" y2="245" ></line><line x1="644.333996035978" y1="25" x2="644.333996035978" y2="245"></line></g><!-- Summary text --><g fill="black" style="color:black;opacity:1"><text x="10" y="260" style="font-weight:bold">Summary</text><text x="370.451127637044" y="260" fill="black" style="font-weight:bold">80 <!--( - )--></text><text x="634.333996035978" y="260" fill="black" style="font-weight:bold">94 <!--( - )--></text><text x="10" y="280">Likelihood ratios: positive is 14.2, negative is 0.2</text><text x="10" y="296">(hierarchical bivariate model)</text><text x="10" y="315" style="font-weight:bold">Area under the ROC curve: 0.932</text><text x="10" y="335" style="font-weight:bold">Predictive values:</text><text x="10" y="355">At the prevalences studied (pooled 35%, median 39, range 23 - 70, odds 0.53):</text><text x="20" y="370">Positive predictive value is: 88.2%</text><text x="20" y="385">Negative predictive value is: 9.9%</text><a xlink:href="http://sumsearch.org/calc/calc.aspx?calc_dx_SnSp.aspx?prevalence=35&amp;sensitivity=80&amp;specificity=94" title="Adjust prevalence and recalculate predictive values" target="_blank"><text x="20" y="400" fill="rgba(0,0,255,1)" style="font-weight:normal;text-decoration:underline;">Click here to recalculate predictive values at other prevalences</text></a><!-- About the studies --><text x="10" y="425" style="font-weight:bold">About the studies:</text><text x="10" y="440">1538 persons (median 61, range 10 - 773) in 11 studies.</text><text x="10" y="455">532 persons with the outcome (median 23, range 6 - 181).</text></g> </svg>
